<svg xmlns="http://www.w3.org/2000/svg" viewBox="0 0 1600 1000" fill="none">
  <defs>
    <linearGradient id="bg" x1="0" y1="0" x2="1" y2="1">
      <stop offset="0%" stop-color="#0E213A"/>
      <stop offset="60%" stop-color="#09111F"/>
      <stop offset="100%" stop-color="#111D31"/>
    </linearGradient>
    <radialGradient id="glow" cx="72%" cy="14%" r="44%">
      <stop offset="0%" stop-color="#7BE9FF" stop-opacity=".9"/>
      <stop offset="100%" stop-color="#7BE9FF" stop-opacity="0"/>
    </radialGradient>
  </defs>

  <rect width="1600" height="1000" fill="url(#bg)"/>
  <rect width="1600" height="1000" fill="url(#glow)"/>

  <g opacity=".13" stroke="#B7EFFF" stroke-width="2">
    <path d="M0 850H1600"/><path d="M0 790H1600"/><path d="M0 730H1600"/>
    <path d="M220 0V1000"/><path d="M540 0V1000"/><path d="M920 0V1000"/><path d="M1260 0V1000"/>
  </g>

  <g>
    <path d="M180 860V356l168-168 178 134V860H180Z" fill="#172A43"/>
    <path d="M560 860V256l198-196 182 178V860H560Z" fill="#223753"/>
    <path d="M982 860V314l154-128 156 136V860H982Z" fill="#18283F"/>
    <path d="M1292 860V396l120-106 102 110V860h-222Z" fill="#21344F"/>
  </g>

  <g fill="#8BDCF2" opacity=".74">
    <rect x="256" y="404" width="18" height="18"/><rect x="288" y="404" width="18" height="18"/><rect x="320" y="404" width="18" height="18"/>
    <rect x="630" y="286" width="20" height="20"/><rect x="664" y="286" width="20" height="20"/><rect x="698" y="286" width="20" height="20"/>
    <rect x="1030" y="350" width="18" height="18"/><rect x="1060" y="350" width="18" height="18"/><rect x="1090" y="350" width="18" height="18"/>
    <rect x="1360" y="434" width="16" height="16"/><rect x="1388" y="434" width="16" height="16"/>
  </g>

  <path d="M100 780c138-86 236-122 332-112 110 12 184 68 286 84 106 16 174-17 284-67 108-49 211-72 498-38" stroke="#74F3FF" stroke-width="8" stroke-linecap="round" stroke-linejoin="round"/>
  <circle cx="432" cy="672" r="14" fill="#74F3FF"/>
  <circle cx="790" cy="734" r="14" fill="#74F3FF"/>
  <circle cx="1122" cy="630" r="14" fill="#74F3FF"/>

  <rect x="94" y="84" width="226" height="58" rx="29" fill="#78EEFF" fill-opacity=".13" stroke="#A6F5FF" stroke-opacity=".42"/>
  <text x="142" y="122" fill="#EFFFFF" font-size="30" font-family="Arial, sans-serif" font-weight="700">EKONOMI</text>
</svg>
