<svg xmlns="http://www.w3.org/2000/svg" viewBox="0 0 1600 1000" fill="none">
  <defs>
    <linearGradient id="bg" x1="0" y1="0" x2="1" y2="1">
      <stop offset="0%" stop-color="#121B2B"/>
      <stop offset="50%" stop-color="#0A1220"/>
      <stop offset="100%" stop-color="#07101B"/>
    </linearGradient>
    <radialGradient id="glow" cx="74%" cy="18%" r="48%">
      <stop offset="0%" stop-color="#FFB27A" stop-opacity=".85"/>
      <stop offset="100%" stop-color="#FFB27A" stop-opacity="0"/>
    </radialGradient>
    <linearGradient id="card" x1="0" y1="0" x2="0" y2="1">
      <stop offset="0%" stop-color="#16263D"/>
      <stop offset="100%" stop-color="#0E1827"/>
    </linearGradient>
  </defs>

  <rect width="1600" height="1000" fill="url(#bg)"/>
  <rect width="1600" height="1000" fill="url(#glow)"/>

  <g opacity=".12" stroke="#B6D8FF" stroke-width="2">
    <path d="M0 180H1600"/><path d="M0 280H1600"/><path d="M0 380H1600"/><path d="M0 480H1600"/>
    <path d="M220 0V1000"/><path d="M560 0V1000"/><path d="M920 0V1000"/><path d="M1280 0V1000"/>
  </g>

  <rect x="116" y="170" width="1368" height="660" rx="34" fill="url(#card)" stroke="#29435F" stroke-width="2"/>
  <rect x="164" y="218" width="560" height="566" rx="28" fill="#101B2B" stroke="#31506B"/>
  <rect x="760" y="218" width="678" height="254" rx="28" fill="#101B2B" stroke="#31506B"/>
  <rect x="760" y="506" width="678" height="278" rx="28" fill="#101B2B" stroke="#31506B"/>

  <g opacity=".95">
    <path d="M204 648L316 584L418 628L520 516L624 552L682 492" stroke="#FFB27A" stroke-width="10" stroke-linecap="round" stroke-linejoin="round"/>
    <path d="M204 648L316 584L418 628L520 516L624 552L682 492" stroke="#FFF3DF" stroke-opacity=".22" stroke-width="22" stroke-linecap="round" stroke-linejoin="round"/>
  </g>

  <g stroke="#73E8FF" stroke-width="4" opacity=".72">
    <circle cx="540" cy="488" r="32"/>
    <circle cx="540" cy="488" r="74"/>
    <circle cx="540" cy="488" r="118"/>
  </g>

  <g fill="#1A2A40" opacity=".92">
    <path d="M838 398L930 350L1000 368L1070 300L1156 342L1230 278L1360 346V440H838V398Z"/>
    <path d="M838 714L930 658L1010 678L1088 612L1182 662L1262 600L1360 652V748H838V714Z"/>
  </g>

  <g fill="#7DE7FF" opacity=".78">
    <rect x="872" y="266" width="186" height="18" rx="9"/>
    <rect x="872" y="300" width="286" height="14" rx="7"/>
    <rect x="872" y="332" width="244" height="14" rx="7" opacity=".72"/>
    <rect x="872" y="556" width="186" height="18" rx="9"/>
    <rect x="872" y="590" width="324" height="14" rx="7"/>
    <rect x="872" y="622" width="226" height="14" rx="7" opacity=".72"/>
  </g>

  <path d="M192 744H684" stroke="#243B58" stroke-width="2"/>
  <path d="M804 474H1398" stroke="#243B58" stroke-width="2"/>

  <rect x="96" y="86" width="286" height="58" rx="29" fill="#FFB27A" fill-opacity=".12" stroke="#FFD5B7" stroke-opacity=".42"/>
  <text x="136" y="123" fill="#FFF7EE" font-size="30" font-family="Arial, sans-serif" font-weight="700">DEPREM MERKEZI</text>
</svg>
